<svg width="24" height="24" viewBox="0 0 24 24" fill="none" xmlns="http://www.w3.org/2000/svg">
<path d="M11.932 8.98L10.278 10.464C10.4966 11.2124 10.802 11.9326 11.188 12.61C11.5906 13.2825 12.0757 13.9019 12.632 14.454L14.774 13.794C15.974 13.424 17.284 13.804 18.082 14.754L19.302 16.206C19.7959 16.7889 20.0436 17.5412 19.9924 18.3035C19.9413 19.0658 19.5954 19.7783 19.028 20.29C17.038 22.106 13.974 22.72 11.68 20.918C9.66292 19.3315 7.95687 17.3854 6.64799 15.178C5.33578 12.9815 4.45723 10.5536 4.05999 8.026C3.61999 5.182 5.70199 2.906 8.29799 2.13C9.84599 1.666 11.498 2.462 12.066 3.946L12.736 5.696C13.176 6.848 12.86 8.148 11.932 8.98Z" fill="#14AE5C"/>
</svg>
